<svg fill="none" height="100%" width="100%" viewBox="0 0 32 32" xmlns:xlink="http://www.w3.org/1999/xlink" xmlns="http://www.w3.org/2000/svg"><g transform="matrix(1,0,0,1,16,16)" id="i0"><path d="M-13.5,-7.5C-13.5,-7.5,-13.5,-9,-13.5,-9C-13.5,-9,-12.5,-10,-12.5,-10C-12.5,-10,-11,-10,-11,-10C-11,-10,-3,-4,-3,-4C-3,-4,-8,-12.5,-8,-12.5C-8,-12.5,-8.5,-14.5,-8.5,-14.5C-8.5,-14.5,-7.5,-16,-7.5,-16C-7.5,-16,-5,-15.5,-5,-15.5C-5,-15.5,0.5,-4,0.5,-4C0.5,-4,1,-15,1,-15C1,-15,2.5,-15.5,2.5,-15.5C2.5,-15.5,3.5,-15,3.5,-15C3.5,-15,4,-14,4,-14C4,-14,2.5,-4.5,2.5,-4.5C2.5,-4.5,7.5,-11,7.5,-11C7.5,-11,9.5,-12.5,9.5,-12.5C9.5,-12.5,11,-12.5,11,-12.5C11,-12.5,12,-11,12,-11C12,-11,11.5,-9.5,11.5,-9.5C11.5,-9.5,6,-2,6,-2C6,-2,14.5,-3.5,14.5,-3.5C14.5,-3.5,15.5,-3,15.5,-3C15.5,-3,16,-2.5,16,-2.5C16,-2.5,15.5,-1.5,15.5,-1.5C15.5,-1.5,5,1,5,1C5,1,14.5,2,14.5,2C14.5,2,15.5,2.5,15.5,2.5C15.5,2.5,16,3.5,16,3.5C16,3.5,15.5,4,15.5,4C15.5,4,14.5,4.5,14.5,4.5C14.5,4.5,5,2.5,5,2.5C5,2.5,12.5,9.5,12.5,9.5C12.5,9.5,12.5,10.5,12.5,10.5C12.5,10.5,12,11,12,11C12,11,5,5.5,5,5.5C5,5.5,8.5,11.5,8.5,11.5C8.5,11.5,9,13,9,13C9,13,8,13.5,8,13.5C8,13.5,7,13.5,7,13.5C7,13.5,1.5,5.5,1.5,5.5C1.5,5.5,0.5,15,0.5,15C0.5,15,-1,16,-1,16C-1,16,-2,14.5,-2,14.5C-2,14.5,0,4,0,4C0,4,-7.5,13.5,-7.5,13.5C-7.5,13.5,-9,13,-9,13C-9,13,-9,12,-9,12C-9,12,-2,3,-2,3C-2,3,-10.5,8.5,-10.5,8.5C-10.5,8.5,-12,9,-12,9C-12,9,-12.5,8,-12.5,8C-12.5,8,-12,7,-12,7C-12,7,-3,1.5,-3,1.5C-3,1.5,-15.5,1,-15.5,1C-15.5,1,-16,-1,-16,-1C-16,-1,-14.5,-1.5,-14.5,-1.5C-14.5,-1.5,-3,0,-3,0C-3,0,-13.5,-7.5,-13.5,-7.5Z" fill-rule="evenodd" fill="#d97757"><animate repeatCount="indefinite" attributeName="d" dur="0.933s" begin="0s" calcMode="spline" values="M-13.5,-7.5C-13.5,-7.5,-13.5,-9,-13.5,-9C-13.5,-9,-12.5,-10,-12.5,-10C-12.5,-10,-11,-10,-11,-10C-11,-10,-3,-4,-3,-4C-3,-4,-8,-12.5,-8,-12.5C-8,-12.5,-8.5,-14.5,-8.5,-14.5C-8.5,-14.5,-7.5,-16,-7.5,-16C-7.5,-16,-5,-15.5,-5,-15.5C-5,-15.5,0.5,-4,0.5,-4C0.5,-4,1,-15,1,-15C1,-15,2.5,-15.5,2.5,-15.5C2.5,-15.5,3.5,-15,3.5,-15C3.5,-15,4,-14,4,-14C4,-14,2.5,-4.5,2.5,-4.5C2.5,-4.5,7.5,-11,7.5,-11C7.5,-11,9.5,-12.5,9.5,-12.5C9.5,-12.5,11,-12.5,11,-12.5C11,-12.5,12,-11,12,-11C12,-11,11.5,-9.5,11.5,-9.5C11.5,-9.5,6,-2,6,-2C6,-2,14.5,-3.5,14.5,-3.5C14.5,-3.5,15.5,-3,15.5,-3C15.5,-3,16,-2.5,16,-2.5C16,-2.5,15.5,-1.5,15.5,-1.5C15.5,-1.5,5,1,5,1C5,1,14.5,2,14.5,2C14.5,2,15.5,2.5,15.5,2.5C15.5,2.5,16,3.5,16,3.5C16,3.5,15.5,4,15.5,4C15.5,4,14.5,4.5,14.5,4.5C14.5,4.5,5,2.5,5,2.5C5,2.5,12.5,9.5,12.5,9.5C12.5,9.5,12.5,10.5,12.5,10.5C12.5,10.5,12,11,12,11C12,11,5,5.5,5,5.5C5,5.5,8.5,11.5,8.5,11.5C8.5,11.5,9,13,9,13C9,13,8,13.5,8,13.5C8,13.5,7,13.5,7,13.5C7,13.5,1.5,5.5,1.5,5.5C1.5,5.5,0.5,15,0.5,15C0.5,15,-1,16,-1,16C-1,16,-2,14.5,-2,14.5C-2,14.5,0,4,0,4C0,4,-7.5,13.5,-7.5,13.5C-7.5,13.5,-9,13,-9,13C-9,13,-9,12,-9,12C-9,12,-2,3,-2,3C-2,3,-10.5,8.5,-10.5,8.5C-10.5,8.5,-12,9,-12,9C-12,9,-12.5,8,-12.5,8C-12.5,8,-12,7,-12,7C-12,7,-3,1.5,-3,1.5C-3,1.5,-15.5,1,-15.5,1C-15.5,1,-16,-1,-16,-1C-16,-1,-14.5,-1.5,-14.5,-1.5C-14.5,-1.5,-3,0,-3,0C-3,0,-13.5,-7.5,-13.5,-7.5Z; M-5.5,-1.5C-5.5,-1.5,-5.5,-3,-5.5,-3C-5.5,-3,-4.5,-4,-4.5,-4C-4.5,-4,-3,-4,-3,-4C-3,-4,-3,-4,-3,-4C-3,-4,-3,-4.5,-3,-4.5C-3,-4.5,-2.5,-5.5,-2.5,-5.5C-2.5,-5.5,-1.5,-6,-1.5,-6C-1.5,-6,0,-5.5,0,-5.5C0,-5.5,0.5,-4,0.5,-4C0.5,-4,1,-4,1,-4C1,-4,1.5,-4.5,1.5,-4.5C1.5,-4.5,1.5,-5,1.5,-5C1.5,-5,2,-5,2,-5C2,-5,2.5,-4.5,2.5,-4.5C2.5,-4.5,3.5,-5,3.5,-5C3.5,-5,3.5,-4.5,3.5,-4.5C3.5,-4.5,5,-4.5,5,-4.5C5,-4.5,6,-3,6,-3C6,-3,5.5,-1.5,5.5,-1.5C5.5,-1.5,6,-2,6,-2C6,-2,6.5,-1.5,6.5,-1.5C6.5,-1.5,7.5,-1,7.5,-1C7.5,-1,8,-0.5,8,-0.5C8,-0.5,7.5,0.5,7.5,0.5C7.5,0.5,5,1,5,1C5,1,6.5,1,6.5,1C6.5,1,7.5,1.5,7.5,1.5C7.5,1.5,8,2.5,8,2.5C8,2.5,7.5,3,7.5,3C7.5,3,6.5,3.5,6.5,3.5C6.5,3.5,5,2.5,5,2.5C5,2.5,5.5,3.5,5.5,3.5C5.5,3.5,5.5,4.5,5.5,4.5C5.5,4.5,5,5,5,5C5,5,5,5.5,5,5.5C5,5.5,3.5,4.5,3.5,4.5C3.5,4.5,4,6,4,6C4,6,3,6.5,3,6.5C3,6.5,2,6.5,2,6.5C2,6.5,1.5,5.5,1.5,5.5C1.5,5.5,1.5,6,1.5,6C1.5,6,0,7,0,7C0,7,-1,5.5,-1,5.5C-1,5.5,0,4,0,4C0,4,-1.5,5.5,-1.5,5.5C-1.5,5.5,-3,5,-3,5C-3,5,-3,4,-3,4C-3,4,-2,3,-2,3C-2,3,-2.5,3.5,-2.5,3.5C-2.5,3.5,-4,4,-4,4C-4,4,-4.5,3,-4.5,3C-4.5,3,-4,2,-4,2C-4,2,-3,1.5,-3,1.5C-3,1.5,-5.5,2,-5.5,2C-5.5,2,-6,0,-6,0C-6,0,-4.5,-0.5,-4.5,-0.5C-4.5,-0.5,-3,0,-3,0C-3,0,-5.5,-1.5,-5.5,-1.5Z; M-13.5,-7.5C-13.5,-7.5,-13.5,-9,-13.5,-9C-13.5,-9,-12.5,-10,-12.5,-10C-12.5,-10,-11,-10,-11,-10C-11,-10,-3,-4,-3,-4C-3,-4,-8,-12.5,-8,-12.5C-8,-12.5,-8.5,-14.5,-8.5,-14.5C-8.5,-14.5,-7.5,-16,-7.5,-16C-7.5,-16,-5,-15.5,-5,-15.5C-5,-15.5,0.5,-4,0.5,-4C0.5,-4,1,-15,1,-15C1,-15,2.5,-15.5,2.5,-15.5C2.5,-15.5,3.5,-15,3.5,-15C3.5,-15,4,-14,4,-14C4,-14,2.5,-4.5,2.5,-4.5C2.5,-4.5,7.5,-11,7.5,-11C7.5,-11,9.5,-12.5,9.5,-12.5C9.5,-12.5,11,-12.5,11,-12.5C11,-12.5,12,-11,12,-11C12,-11,11.5,-9.5,11.5,-9.5C11.5,-9.5,6,-2,6,-2C6,-2,14.5,-3.5,14.5,-3.5C14.5,-3.5,15.5,-3,15.5,-3C15.5,-3,16,-2.5,16,-2.5C16,-2.5,15.5,-1.5,15.5,-1.5C15.5,-1.5,5,1,5,1C5,1,14.5,2,14.5,2C14.5,2,15.5,2.5,15.5,2.5C15.5,2.5,16,3.5,16,3.5C16,3.5,15.5,4,15.5,4C15.5,4,14.5,4.5,14.5,4.5C14.5,4.5,5,2.5,5,2.5C5,2.5,12.5,9.5,12.5,9.5C12.5,9.5,12.5,10.5,12.5,10.5C12.5,10.5,12,11,12,11C12,11,5,5.5,5,5.5C5,5.5,8.5,11.5,8.5,11.5C8.5,11.5,9,13,9,13C9,13,8,13.5,8,13.5C8,13.5,7,13.5,7,13.5C7,13.5,1.5,5.5,1.5,5.5C1.5,5.5,0.5,15,0.5,15C0.5,15,-1,16,-1,16C-1,16,-2,14.5,-2,14.5C-2,14.5,0,4,0,4C0,4,-7.5,13.5,-7.5,13.5C-7.5,13.5,-9,13,-9,13C-9,13,-9,12,-9,12C-9,12,-2,3,-2,3C-2,3,-10.5,8.5,-10.5,8.5C-10.5,8.5,-12,9,-12,9C-12,9,-12.5,8,-12.5,8C-12.5,8,-12,7,-12,7C-12,7,-3,1.5,-3,1.5C-3,1.5,-15.5,1,-15.5,1C-15.5,1,-16,-1,-16,-1C-16,-1,-14.5,-1.5,-14.5,-1.5C-14.5,-1.5,-3,0,-3,0C-3,0,-13.5,-7.5,-13.5,-7.5Z" keyTimes="0; 0.464286; 1" keySplines="0.5 0 0.5 1; 0.5 0 0.36 1" fill="freeze" /></path></g></svg>