 <svg fill="none" height="100%" width="100%" viewBox="0 0 32 32" xmlns:xlink="http://www.w3.org/1999/xlink" xmlns="http://www.w3.org/2000/svg"><g transform="matrix(1,0,0,1,16,16)" id="i0"><path d="M-13.5,-7.5C-13.5,-7.5,-13.5,-9,-13.5,-9C-13.5,-9,-12.5,-10,-12.5,-10C-12.5,-10,-11,-10,-11,-10C-11,-10,-3,-4,-3,-4C-3,-4,-8,-12.5,-8,-12.5C-8,-12.5,-8.5,-14.5,-8.5,-14.5C-8.5,-14.5,-7.5,-16,-7.5,-16C-7.5,-16,-5,-15.5,-5,-15.5C-5,-15.5,0.5,-4,0.5,-4C0.5,-4,1,-15,1,-15C1,-15,2.5,-15.5,2.5,-15.5C2.5,-15.5,3.5,-15,3.5,-15C3.5,-15,4,-14,4,-14C4,-14,2.5,-4.5,2.5,-4.5C2.5,-4.5,7.5,-11,7.5,-11C7.5,-11,9.5,-12.5,9.5,-12.5C9.5,-12.5,11,-12.5,11,-12.5C11,-12.5,12,-11,12,-11C12,-11,11.5,-9.5,11.5,-9.5C11.5,-9.5,6,-2,6,-2C6,-2,14.5,-3.5,14.5,-3.5C14.5,-3.5,15.5,-3,15.5,-3C15.5,-3,16,-2.5,16,-2.5C16,-2.5,15.75,-2,15.75,-2C15.75,-2,15.5,-1.5,15.5,-1.5C15.5,-1.5,5,1,5,1C5,1,14.5,2,14.5,2C14.5,2,15.5,2.5,15.5,2.5C15.5,2.5,16,3.5,16,3.5C16,3.5,15.5,4,15.5,4C15.5,4,14.5,4.5,14.5,4.5C14.5,4.5,5,2.5,5,2.5C5,2.5,12.5,9.5,12.5,9.5C12.5,9.5,12.5,10.5,12.5,10.5C12.5,10.5,12,11,12,11C12,11,5,5.5,5,5.5C5,5.5,8.5,11.5,8.5,11.5C8.5,11.5,9,13,9,13C9,13,8,13.5,8,13.5C8,13.5,7,13.5,7,13.5C7,13.5,1.5,5.5,1.5,5.5C1.5,5.5,0.5,15,0.5,15C0.5,15,-1,16,-1,16C-1,16,-2,14.5,-2,14.5C-2,14.5,0,4,0,4C0,4,-7.5,13.5,-7.5,13.5C-7.5,13.5,-9,13,-9,13C-9,13,-9,12,-9,12C-9,12,-2,3,-2,3C-2,3,-10.5,8.5,-10.5,8.5C-10.5,8.5,-12,9,-12,9C-12,9,-12.5,8,-12.5,8C-12.5,8,-12,7,-12,7C-12,7,-3,1.5,-3,1.5C-3,1.5,-15.5,1,-15.5,1C-15.5,1,-16,-1,-16,-1C-16,-1,-14.5,-1.5,-14.5,-1.5C-14.5,-1.5,-3,0,-3,0C-3,0,-13.5,-7.5,-13.5,-7.5Z" fill-rule="evenodd" fill="#d97757"><animate repeatCount="indefinite" attributeName="d" dur="0.7s" begin="0s" calcMode="spline" values="M-13.5,-7.5C-13.5,-7.5,-13.5,-9,-13.5,-9C-13.5,-9,-12.5,-10,-12.5,-10C-12.5,-10,-11,-10,-11,-10C-11,-10,-3,-4,-3,-4C-3,-4,-8,-12.5,-8,-12.5C-8,-12.5,-8.5,-14.5,-8.5,-14.5C-8.5,-14.5,-7.5,-16,-7.5,-16C-7.5,-16,-5,-15.5,-5,-15.5C-5,-15.5,0.5,-4,0.5,-4C0.5,-4,1,-15,1,-15C1,-15,2.5,-15.5,2.5,-15.5C2.5,-15.5,3.5,-15,3.5,-15C3.5,-15,4,-14,4,-14C4,-14,2.5,-4.5,2.5,-4.5C2.5,-4.5,7.5,-11,7.5,-11C7.5,-11,9.5,-12.5,9.5,-12.5C9.5,-12.5,11,-12.5,11,-12.5C11,-12.5,12,-11,12,-11C12,-11,11.5,-9.5,11.5,-9.5C11.5,-9.5,6,-2,6,-2C6,-2,14.5,-3.5,14.5,-3.5C14.5,-3.5,15.5,-3,15.5,-3C15.5,-3,16,-2.5,16,-2.5C16,-2.5,15.75,-2,15.75,-2C15.75,-2,15.5,-1.5,15.5,-1.5C15.5,-1.5,5,1,5,1C5,1,14.5,2,14.5,2C14.5,2,15.5,2.5,15.5,2.5C15.5,2.5,16,3.5,16,3.5C16,3.5,15.5,4,15.5,4C15.5,4,14.5,4.5,14.5,4.5C14.5,4.5,5,2.5,5,2.5C5,2.5,12.5,9.5,12.5,9.5C12.5,9.5,12.5,10.5,12.5,10.5C12.5,10.5,12,11,12,11C12,11,5,5.5,5,5.5C5,5.5,8.5,11.5,8.5,11.5C8.5,11.5,9,13,9,13C9,13,8,13.5,8,13.5C8,13.5,7,13.5,7,13.5C7,13.5,1.5,5.5,1.5,5.5C1.5,5.5,0.5,15,0.5,15C0.5,15,-1,16,-1,16C-1,16,-2,14.5,-2,14.5C-2,14.5,0,4,0,4C0,4,-7.5,13.5,-7.5,13.5C-7.5,13.5,-9,13,-9,13C-9,13,-9,12,-9,12C-9,12,-2,3,-2,3C-2,3,-10.5,8.5,-10.5,8.5C-10.5,8.5,-12,9,-12,9C-12,9,-12.5,8,-12.5,8C-12.5,8,-12,7,-12,7C-12,7,-3,1.5,-3,1.5C-3,1.5,-15.5,1,-15.5,1C-15.5,1,-16,-1,-16,-1C-16,-1,-14.5,-1.5,-14.5,-1.5C-14.5,-1.5,-3,0,-3,0C-3,0,-13.5,-7.5,-13.5,-7.5Z; M-3.5,-0.5C-3.5,-0.5,-4.644,-1.924,-4.644,-1.924C-4.644,-1.924,-4.5,-3,-4.5,-3C-4.5,-3,-4,-4,-4,-4C-4,-4,-3,-4,-3,-4C-3,-4,-3,-4.5,-3,-4.5C-3,-4.5,-2.5,-4.5,-2.5,-4.5C-2.5,-4.5,-1.437,-4.209,-1.437,-4.209C-1.437,-4.209,0,-4.5,0,-4.5C0,-4.5,0.5,-4,0.5,-4C0.5,-4,1,-13,1,-13C1,-13,2.5,-13.5,2.5,-13.5C2.5,-13.5,3.5,-13,3.5,-13C3.5,-13,4,-12,4,-12C4,-12,2.5,-4.5,2.5,-4.5C2.5,-4.5,7.5,-11,7.5,-11C7.5,-11,9.5,-12.5,9.5,-12.5C9.5,-12.5,11,-12.5,11,-12.5C11,-12.5,12,-11,12,-11C12,-11,11.5,-9.5,11.5,-9.5C11.5,-9.5,6,-2,6,-2C6,-2,14.5,-3.5,14.5,-3.5C14.5,-3.5,15.5,-3,15.5,-3C15.5,-3,16,-2.5,16,-2.5C16,-2.5,15.75,-2,15.75,-2C15.75,-2,15.5,-1.5,15.5,-1.5C15.5,-1.5,5,1,5,1C5,1,14.5,2,14.5,2C14.5,2,15.5,2.5,15.5,2.5C15.5,2.5,16,3.5,16,3.5C16,3.5,15.5,4,15.5,4C15.5,4,14.5,4.5,14.5,4.5C14.5,4.5,5,2.5,5,2.5C5,2.5,12.5,9.5,12.5,9.5C12.5,9.5,12.5,10.5,12.5,10.5C12.5,10.5,12,11,12,11C12,11,5,5.5,5,5.5C5,5.5,8.5,11.5,8.5,11.5C8.5,11.5,9,13,9,13C9,13,8,13.5,8,13.5C8,13.5,7,13.5,7,13.5C7,13.5,1.5,5.5,1.5,5.5C1.5,5.5,0.5,15,0.5,15C0.5,15,-1,16,-1,16C-1,16,-2,14.5,-2,14.5C-2,14.5,0,4,0,4C0,4,-7.5,13.5,-7.5,13.5C-7.5,13.5,-9,13,-9,13C-9,13,-9,12,-9,12C-9,12,-2,3,-2,3C-2,3,-10.5,8.5,-10.5,8.5C-10.5,8.5,-12,9,-12,9C-12,9,-12.5,8,-12.5,8C-12.5,8,-12,7,-12,7C-12,7,-3,1.5,-3,1.5C-3,1.5,-15.5,1,-15.5,1C-15.5,1,-16,-1,-16,-1C-16,-1,-14.5,-1.5,-14.5,-1.5C-14.5,-1.5,-3,0,-3,0C-3,0,-3.5,-0.5,-3.5,-0.5Z; M-13.5,-7.5C-13.5,-7.5,-13.5,-9,-13.5,-9C-13.5,-9,-12.5,-10,-12.5,-10C-12.5,-10,-11,-10,-11,-10C-11,-10,-3,-4,-3,-4C-3,-4,-7,-9.5,-7,-9.5C-7,-9.5,-7.5,-11.5,-7.5,-11.5C-7.5,-11.5,-6.5,-13,-6.5,-13C-6.5,-13,-4,-12.5,-4,-12.5C-4,-12.5,0.5,-4,0.5,-4C0.5,-4,1,-4,1,-4C1,-4,0.5,-4.5,0.5,-4.5C0.5,-4.5,1.5,-4,1.5,-4C1.5,-4,2,-4,2,-4C2,-4,2.5,-4.5,2.5,-4.5C2.5,-4.5,2.5,-4,2.5,-4C2.5,-4,3.5,-4.5,3.5,-4.5C3.5,-4.5,4,-3.5,4,-3.5C4,-3.5,4,-3,4,-3C4,-3,4.5,-2.5,4.5,-2.5C4.5,-2.5,6,-2,6,-2C6,-2,12.5,-3.5,12.5,-3.5C12.5,-3.5,13.5,-3,13.5,-3C13.5,-3,14,-2.5,14,-2.5C14,-2.5,13.75,-2,13.75,-2C13.75,-2,13.5,-1.5,13.5,-1.5C13.5,-1.5,5,1,5,1C5,1,14.5,2,14.5,2C14.5,2,15.5,2.5,15.5,2.5C15.5,2.5,16,3.5,16,3.5C16,3.5,15.5,4,15.5,4C15.5,4,14.5,4.5,14.5,4.5C14.5,4.5,5,2.5,5,2.5C5,2.5,12.5,9.5,12.5,9.5C12.5,9.5,12.5,10.5,12.5,10.5C12.5,10.5,12,11,12,11C12,11,5,5.5,5,5.5C5,5.5,8.5,11.5,8.5,11.5C8.5,11.5,9,13,9,13C9,13,8,13.5,8,13.5C8,13.5,7,13.5,7,13.5C7,13.5,1.5,5.5,1.5,5.5C1.5,5.5,0.5,15,0.5,15C0.5,15,-1,16,-1,16C-1,16,-2,14.5,-2,14.5C-2,14.5,0,4,0,4C0,4,-7.5,13.5,-7.5,13.5C-7.5,13.5,-9,13,-9,13C-9,13,-9,12,-9,12C-9,12,-2,3,-2,3C-2,3,-10.5,8.5,-10.5,8.5C-10.5,8.5,-12,9,-12,9C-12,9,-12.5,8,-12.5,8C-12.5,8,-12,7,-12,7C-12,7,-3,1.5,-3,1.5C-3,1.5,-15.5,1,-15.5,1C-15.5,1,-16,-1,-16,-1C-16,-1,-14.5,-1.5,-14.5,-1.5C-14.5,-1.5,-3,0,-3,0C-3,0,-13.5,-7.5,-13.5,-7.5Z; M-13.5,-7.5C-13.5,-7.5,-13.5,-9,-13.5,-9C-13.5,-9,-12.5,-10,-12.5,-10C-12.5,-10,-11,-10,-11,-10C-11,-10,-3,-4,-3,-4C-3,-4,-8,-12.5,-8,-12.5C-8,-12.5,-8.5,-14.5,-8.5,-14.5C-8.5,-14.5,-7.5,-16,-7.5,-16C-7.5,-16,-5,-15.5,-5,-15.5C-5,-15.5,0.5,-4,0.5,-4C0.5,-4,1,-15,1,-15C1,-15,2.5,-15.5,2.5,-15.5C2.5,-15.5,3.5,-15,3.5,-15C3.5,-15,4,-14,4,-14C4,-14,2.5,-4.5,2.5,-4.5C2.5,-4.5,6.5,-9,6.5,-9C6.5,-9,8.5,-10.5,8.5,-10.5C8.5,-10.5,10,-10.5,10,-10.5C10,-10.5,11,-9,11,-9C11,-9,10.5,-7.5,10.5,-7.5C10.5,-7.5,6,-2,6,-2C6,-2,6.5,-1.5,6.5,-1.5C6.5,-1.5,6.5,-1,6.5,-1C6.5,-1,6,-0.5,6,-0.5C6,-0.5,5.75,0,5.75,0C5.75,0,5.5,0.5,5.5,0.5C5.5,0.5,5,1,5,1C5,1,6.5,1,6.5,1C6.5,1,6.5,1.5,6.5,1.5C6.5,1.5,6,1.5,6,1.5C6,1.5,5.5,2,5.5,2C5.5,2,5.5,2.5,5.5,2.5C5.5,2.5,5,2.5,5,2.5C5,2.5,10.5,7.5,10.5,7.5C10.5,7.5,10.5,8.5,10.5,8.5C10.5,8.5,10,9,10,9C10,9,5,5.5,5,5.5C5,5.5,8.5,11.5,8.5,11.5C8.5,11.5,9,13,9,13C9,13,8,13.5,8,13.5C8,13.5,7,13.5,7,13.5C7,13.5,1.5,5.5,1.5,5.5C1.5,5.5,0.5,15,0.5,15C0.5,15,-1,16,-1,16C-1,16,-2,14.5,-2,14.5C-2,14.5,0,4,0,4C0,4,-7.5,13.5,-7.5,13.5C-7.5,13.5,-9,13,-9,13C-9,13,-9,12,-9,12C-9,12,-2,3,-2,3C-2,3,-10.5,8.5,-10.5,8.5C-10.5,8.5,-12,9,-12,9C-12,9,-12.5,8,-12.5,8C-12.5,8,-12,7,-12,7C-12,7,-3,1.5,-3,1.5C-3,1.5,-15.5,1,-15.5,1C-15.5,1,-16,-1,-16,-1C-16,-1,-14.5,-1.5,-14.5,-1.5C-14.5,-1.5,-3,0,-3,0C-3,0,-13.5,-7.5,-13.5,-7.5Z; M-13.5,-7.5C-13.5,-7.5,-13.5,-9,-13.5,-9C-13.5,-9,-12.5,-10,-12.5,-10C-12.5,-10,-11,-10,-11,-10C-11,-10,-3,-4,-3,-4C-3,-4,-8,-12.5,-8,-12.5C-8,-12.5,-8.5,-14.5,-8.5,-14.5C-8.5,-14.5,-7.5,-16,-7.5,-16C-7.5,-16,-5,-15.5,-5,-15.5C-5,-15.5,0.5,-4,0.5,-4C0.5,-4,1,-15,1,-15C1,-15,2.5,-15.5,2.5,-15.5C2.5,-15.5,3.5,-15,3.5,-15C3.5,-15,4,-14,4,-14C4,-14,2.5,-4.5,2.5,-4.5C2.5,-4.5,7.5,-11,7.5,-11C7.5,-11,9.5,-12.5,9.5,-12.5C9.5,-12.5,11,-12.5,11,-12.5C11,-12.5,12,-11,12,-11C12,-11,11.5,-9.5,11.5,-9.5C11.5,-9.5,6,-2,6,-2C6,-2,14.5,-3.5,14.5,-3.5C14.5,-3.5,15.5,-3,15.5,-3C15.5,-3,16,-2.5,16,-2.5C16,-2.5,15.75,-2,15.75,-2C15.75,-2,15.5,-1.5,15.5,-1.5C15.5,-1.5,5,1,5,1C5,1,11.5,2,11.5,2C11.5,2,12.5,2.5,12.5,2.5C12.5,2.5,13,3.5,13,3.5C13,3.5,12.5,4,12.5,4C12.5,4,11.5,4.5,11.5,4.5C11.5,4.5,5,2.5,5,2.5C5,2.5,5.5,3.5,5.5,3.5C5.5,3.5,5.5,3.5,5.5,3.5C5.5,3.5,5,4,5,4C5,4,4,4.5,4,4.5C4,4.5,3.5,5.5,3.5,5.5C3.5,5.5,3,6,3,6C3,6,2,5.5,2,5.5C2,5.5,2,5.5,2,5.5C2,5.5,1.5,5.5,1.5,5.5C1.5,5.5,0.5,12,0.5,12C0.5,12,-1,13,-1,13C-1,13,-2,11.5,-2,11.5C-2,11.5,0,4,0,4C0,4,-7.5,13.5,-7.5,13.5C-7.5,13.5,-9,13,-9,13C-9,13,-9,12,-9,12C-9,12,-2,3,-2,3C-2,3,-10.5,8.5,-10.5,8.5C-10.5,8.5,-12,9,-12,9C-12,9,-12.5,8,-12.5,8C-12.5,8,-12,7,-12,7C-12,7,-3,1.5,-3,1.5C-3,1.5,-15.5,1,-15.5,1C-15.5,1,-16,-1,-16,-1C-16,-1,-14.5,-1.5,-14.5,-1.5C-14.5,-1.5,-3,0,-3,0C-3,0,-13.5,-7.5,-13.5,-7.5Z; M-13.5,-7.5C-13.5,-7.5,-13.5,-9,-13.5,-9C-13.5,-9,-12.5,-10,-12.5,-10C-12.5,-10,-11,-10,-11,-10C-11,-10,-3,-4,-3,-4C-3,-4,-8,-12.5,-8,-12.5C-8,-12.5,-8.5,-14.5,-8.5,-14.5C-8.5,-14.5,-7.5,-16,-7.5,-16C-7.5,-16,-5,-15.5,-5,-15.5C-5,-15.5,0.5,-4,0.5,-4C0.5,-4,1,-15,1,-15C1,-15,2.5,-15.5,2.5,-15.5C2.5,-15.5,3.5,-15,3.5,-15C3.5,-15,4,-14,4,-14C4,-14,2.5,-4.5,2.5,-4.5C2.5,-4.5,7.5,-11,7.5,-11C7.5,-11,9.5,-12.5,9.5,-12.5C9.5,-12.5,11,-12.5,11,-12.5C11,-12.5,12,-11,12,-11C12,-11,11.5,-9.5,11.5,-9.5C11.5,-9.5,6,-2,6,-2C6,-2,14.5,-3.5,14.5,-3.5C14.5,-3.5,15.5,-3,15.5,-3C15.5,-3,16,-2.5,16,-2.5C16,-2.5,15.75,-2,15.75,-2C15.75,-2,15.5,-1.5,15.5,-1.5C15.5,-1.5,5,1,5,1C5,1,14.5,2,14.5,2C14.5,2,15.5,2.5,15.5,2.5C15.5,2.5,16,3.5,16,3.5C16,3.5,15.5,4,15.5,4C15.5,4,14.5,4.5,14.5,4.5C14.5,4.5,5,2.5,5,2.5C5,2.5,12.5,9.5,12.5,9.5C12.5,9.5,12.5,10.5,12.5,10.5C12.5,10.5,12,11,12,11C12,11,5,5.5,5,5.5C5,5.5,6.5,9.5,6.5,9.5C6.5,9.5,7,11,7,11C7,11,6,11.5,6,11.5C6,11.5,5,11.5,5,11.5C5,11.5,1.5,5.5,1.5,5.5C1.5,5.5,0.52,5,0.52,5C0.52,5,0,5,0,5C0,5,0,4.5,0,4.5C0,4.5,0,4,0,4C0,4,-1.5,3.5,-1.5,3.5C-1.5,3.5,-2,3,-2,3C-2,3,-2,3,-2,3C-2,3,-2,3,-2,3C-2,3,-7.5,6.5,-7.5,6.5C-7.5,6.5,-9,7,-9,7C-9,7,-9.5,6,-9.5,6C-9.5,6,-9,5,-9,5C-9,5,-3,1.5,-3,1.5C-3,1.5,-15.5,1,-15.5,1C-15.5,1,-16,-1,-16,-1C-16,-1,-14.5,-1.5,-14.5,-1.5C-14.5,-1.5,-3,0,-3,0C-3,0,-13.5,-7.5,-13.5,-7.5Z; M-11.5,-6.5C-11.5,-6.5,-11.5,-8,-11.5,-8C-11.5,-8,-10.5,-9,-10.5,-9C-10.5,-9,-9,-9,-9,-9C-9,-9,-3,-4,-3,-4C-3,-4,-8,-12.5,-8,-12.5C-8,-12.5,-8.5,-14.5,-8.5,-14.5C-8.5,-14.5,-7.5,-16,-7.5,-16C-7.5,-16,-5,-15.5,-5,-15.5C-5,-15.5,0.5,-4,0.5,-4C0.5,-4,1,-15,1,-15C1,-15,2.5,-15.5,2.5,-15.5C2.5,-15.5,3.5,-15,3.5,-15C3.5,-15,4,-14,4,-14C4,-14,2.5,-4.5,2.5,-4.5C2.5,-4.5,7.5,-11,7.5,-11C7.5,-11,9.5,-12.5,9.5,-12.5C9.5,-12.5,11,-12.5,11,-12.5C11,-12.5,12,-11,12,-11C12,-11,11.5,-9.5,11.5,-9.5C11.5,-9.5,6,-2,6,-2C6,-2,14.5,-3.5,14.5,-3.5C14.5,-3.5,15.5,-3,15.5,-3C15.5,-3,16,-2.5,16,-2.5C16,-2.5,15.75,-2,15.75,-2C15.75,-2,15.5,-1.5,15.5,-1.5C15.5,-1.5,5,1,5,1C5,1,14.5,2,14.5,2C14.5,2,15.5,2.5,15.5,2.5C15.5,2.5,16,3.5,16,3.5C16,3.5,15.5,4,15.5,4C15.5,4,14.5,4.5,14.5,4.5C14.5,4.5,5,2.5,5,2.5C5,2.5,12.5,9.5,12.5,9.5C12.5,9.5,12.5,10.5,12.5,10.5C12.5,10.5,12,11,12,11C12,11,5,5.5,5,5.5C5,5.5,8.5,11.5,8.5,11.5C8.5,11.5,9,13,9,13C9,13,8,13.5,8,13.5C8,13.5,7,13.5,7,13.5C7,13.5,1.5,5.5,1.5,5.5C1.5,5.5,0.5,15,0.5,15C0.5,15,-1,16,-1,16C-1,16,-2,14.5,-2,14.5C-2,14.5,0,4,0,4C0,4,-5.5,10.5,-5.5,10.5C-5.5,10.5,-7,10,-7,10C-7,10,-7,9,-7,9C-7,9,-2,3,-2,3C-2,3,-2.5,3.5,-2.5,3.5C-2.5,3.5,-3,3,-3,3C-3,3,-3.5,2,-3.5,2C-3.5,2,-3,2,-3,2C-3,2,-3,1.5,-3,1.5C-3,1.5,-3.5,1,-3.5,1C-3.5,1,-4,1,-4,1C-4,1,-3.5,0.5,-3.5,0.5C-3.5,0.5,-3,0,-3,0C-3,0,-11.5,-6.5,-11.5,-6.5Z; M-13.5,-7.5C-13.5,-7.5,-13.5,-9,-13.5,-9C-13.5,-9,-12.5,-10,-12.5,-10C-12.5,-10,-11,-10,-11,-10C-11,-10,-3,-4,-3,-4C-3,-4,-8,-12.5,-8,-12.5C-8,-12.5,-8.5,-14.5,-8.5,-14.5C-8.5,-14.5,-7.5,-16,-7.5,-16C-7.5,-16,-5,-15.5,-5,-15.5C-5,-15.5,0.5,-4,0.5,-4C0.5,-4,1,-15,1,-15C1,-15,2.5,-15.5,2.5,-15.5C2.5,-15.5,3.5,-15,3.5,-15C3.5,-15,4,-14,4,-14C4,-14,2.5,-4.5,2.5,-4.5C2.5,-4.5,7.5,-11,7.5,-11C7.5,-11,9.5,-12.5,9.5,-12.5C9.5,-12.5,11,-12.5,11,-12.5C11,-12.5,12,-11,12,-11C12,-11,11.5,-9.5,11.5,-9.5C11.5,-9.5,6,-2,6,-2C6,-2,14.5,-3.5,14.5,-3.5C14.5,-3.5,15.5,-3,15.5,-3C15.5,-3,16,-2.5,16,-2.5C16,-2.5,15.75,-2,15.75,-2C15.75,-2,15.5,-1.5,15.5,-1.5C15.5,-1.5,5,1,5,1C5,1,14.5,2,14.5,2C14.5,2,15.5,2.5,15.5,2.5C15.5,2.5,16,3.5,16,3.5C16,3.5,15.5,4,15.5,4C15.5,4,14.5,4.5,14.5,4.5C14.5,4.5,5,2.5,5,2.5C5,2.5,12.5,9.5,12.5,9.5C12.5,9.5,12.5,10.5,12.5,10.5C12.5,10.5,12,11,12,11C12,11,5,5.5,5,5.5C5,5.5,8.5,11.5,8.5,11.5C8.5,11.5,9,13,9,13C9,13,8,13.5,8,13.5C8,13.5,7,13.5,7,13.5C7,13.5,1.5,5.5,1.5,5.5C1.5,5.5,0.5,15,0.5,15C0.5,15,-1,16,-1,16C-1,16,-2,14.5,-2,14.5C-2,14.5,0,4,0,4C0,4,-7.5,13.5,-7.5,13.5C-7.5,13.5,-9,13,-9,13C-9,13,-9,12,-9,12C-9,12,-2,3,-2,3C-2,3,-10.5,8.5,-10.5,8.5C-10.5,8.5,-12,9,-12,9C-12,9,-12.5,8,-12.5,8C-12.5,8,-12,7,-12,7C-12,7,-3,1.5,-3,1.5C-3,1.5,-15.5,1,-15.5,1C-15.5,1,-16,-1,-16,-1C-16,-1,-14.5,-1.5,-14.5,-1.5C-14.5,-1.5,-3,0,-3,0C-3,0,-13.5,-7.5,-13.5,-7.5Z" keyTimes="0; 0.142857; 0.285714; 0.428571; 0.571429; 0.714286; 0.857143; 1" keySplines="0.55 0.06 0.36 1; 0.65 0 0.36 1; 0.65 0 0.36 1; 0.65 0 0.36 1; 0.65 0 0.36 1; 0.65 0 0.36 1; 0.65 0 0.36 1" fill="freeze" /></path></g></svg>